:version 1.10
:name ASF
:units
  mass 1
  length 1
  angle deg
:documentation
  ASF file generated by Kaydara
:root
  axis xyz
  order  tx ty tz rx ry rz
  position 0 0 0
  orientation 0 0 0
:bonedata
  begin
    id 1
    name RightUpLegDummy
    direction -1 2.30186e-007 8.31532e-007
    length 4.04083
    axis 0 0 0 xyz
  end
  begin
    id 2
    name RightUpLeg
    direction -0.000919234 -0.999985 0.00544864
    length 17.4221
    axis -3.80308 -0.00076134 -0.0523649 xyz
    dof rx ry rz
  end
  begin
    id 3
    name RightLeg
    direction -0.000919271 -0.999984 -0.00555045
    length 17.1239
    axis 4.00314 0.0181274 -0.183583 xyz
    dof rx ry rz
  end
  begin
    id 4
    name RightFoot
    direction -2.57843e-005 -4.04509e-007 1
    length 6.72091
    axis 8.18909e-005 -0.122003 -0.403008 xyz
    dof rx ry rz
  end
  begin
    id 5
    name RightToes
    direction 0.00116825 -0.014069 0.9999
    length 3.85082
    axis 0.000514414 0.540638 -0.356797 xyz
    dof rx ry rz
  end
  begin
    id 6
    name SpineDummy
    direction 0.0168869 0.966876 -0.254689
    length 6.99894
    axis 0 0 0 xyz
  end
  begin
    id 7
    name Spine
    direction -0.0132008 0.999903 0.00446247
    length 11.1999
    axis -0.00148109 0.00725429 0.756411 xyz
    dof rx ry rz
  end
  begin
    id 8
    name Spine1
    direction 0 0 0
    length 0
    axis -0.000934958 0.0245693 1.46543 xyz
    dof rx ry rz
  end
  begin
    id 9
    name HEadDummy
    direction -0.0255732 0.999672 0.00128215
    length 3.43865
    axis -0.000934958 0.0245693 1.46543 xyz
  end
  begin
    id 10
    name HEad
    direction -0.0472656 0.980052 0.19304
    length 5.12695
    axis -0.000934954 0.0245693 1.46543 xyz
    dof rx ry rz
  end
  begin
    id 11
    name LeftShoulder1Dummy
    direction 0.953098 0.301717 -0.023914
    length 3.68488
    axis -0.000934958 0.0245693 1.46543 xyz
  end
  begin
    id 12
    name LeftShoulder1
    direction 0.962466 0.271167 0.0112566
    length 3.13809
    axis -0.000934958 0.0245693 1.46543 xyz
    dof rx ry rz
  end
  begin
    id 13
    name LeftArm
    direction 0.999943 0.00455037 -0.00961766
    length 11.3419
    axis -23.1648 0.685459 1.22814 xyz
    dof rx ry rz
  end
  begin
    id 14
    name LeftForeArm
    direction 0.999332 0.0131969 0.0340885
    length 8.70632
    axis -9.90633 0.618216 0.0826942 xyz
    dof rx ry rz
  end
  begin
    id 15
    name LeftHand
    direction 0.994373 -0.0366703 0.0993905
    length 5.32135
    axis 0.00675269 0.680415 0.445699 xyz
    dof rx ry rz
  end
  begin
    id 16
    name RightShoulderDummy
    direction -0.967298 0.252589 -0.0230903
    length 3.68488
    axis -0.000934958 0.0245693 1.46543 xyz
  end
  begin
    id 17
    name RightShoulder
    direction -0.975062 0.221602 0.0120823
    length 3.13809
    axis 0.216257 0.0246515 1.45863 xyz
    dof rx ry rz
  end
  begin
    id 18
    name RightArm
    direction -0.99886 -0.00851186 -0.0469687
    length 10.3947
    axis -23.196 0.23503 -0.532632 xyz
    dof rx ry rz
  end
  begin
    id 19
    name RightForeArm
    direction -0.99909 0.00114866 0.0426317
    length 8.68355
    axis -9.91764 -0.134943 0.610517 xyz
    dof rx ry rz
  end
  begin
    id 20
    name RightHand
    direction -0.992888 -0.0489538 0.10852
    length 5.28593
    axis -0.00275396 -0.197403 0.246414 xyz
    dof rx ry rz
  end
  begin
    id 21
    name LeftUpLegDummy
    direction 1 -2.30186e-007 -8.31532e-007
    length 4.04083
    axis 0 0 0 xyz
  end
  begin
    id 22
    name LeftUpLeg
    direction -0.000920097 -1 2.79241e-006
    length 17.4221
    axis -3.48782 0.00143434 -0.0532288 xyz
    dof rx ry rz
  end
  begin
    id 23
    name LeftLeg
    direction -0.000920097 -1 2.7912e-006
    length 17.1239
    axis 3.68162 -0.00806512 -0.0529896 xyz
    dof rx ry rz
  end
  begin
    id 24
    name LeftFoot
    direction -2.57845e-005 -3.987e-007 1
    length 6.72091
    axis 3.02372e-005 -0.00147829 -0.214229 xyz
    dof rx ry rz
  end
  begin
    id 25
    name LeftToes
    direction 0.00813577 -0.00488255 0.999955
    length 3.85048
    axis 3.89895e-005 -0.0014783 -0.214229 xyz
    dof rx ry rz
  end
:hierarchy
  begin
    root RightUpLegDummy SpineDummy LeftUpLegDummy
    RightUpLegDummy RightUpLeg
    RightUpLeg RightLeg
    RightLeg RightFoot
    RightFoot RightToes
    SpineDummy Spine
    Spine Spine1
    Spine1 HEadDummy LeftShoulder1Dummy RightShoulderDummy
    HEadDummy HEad
    LeftShoulder1Dummy LeftShoulder1
    LeftShoulder1 LeftArm
    LeftArm LeftForeArm
    LeftForeArm LeftHand
    RightShoulderDummy RightShoulder
    RightShoulder RightArm
    RightArm RightForeArm
    RightForeArm RightHand
    LeftUpLegDummy LeftUpLeg
    LeftUpLeg LeftLeg
    LeftLeg LeftFoot
    LeftFoot LeftToes
  end

:SAMPLES-PER-SECOND 30
:FULLY-SPECIFIED
:DEGREES
17
root  -41.7872 34.8433 11.8953 -169.376 58.8943 -179.336
RightUpLeg  -7.38853 -16.4549 -0.622791
RightLeg  2.93865 -1.68783 0.0227552
RightFoot  6.60071 0.0350909 -0.0323169
RightToes  -27.1934 -0.126169 -0.232039
Spine  -2.43197 -0.0440749 -0.146324
Spine1  -4.91553 -0.0157005 0.38995
HEad  -71.0108 -6.81454 10.2045
LeftShoulder1  -1.94126e-019 -3.10601e-018 -2.51263e-017
LeftArm  -12.9857 25.1942 -80.5787
LeftForeArm  34.7421 -10.9977 -1.8957
LeftHand  -0.456269 -1.34922 8.0181
RightShoulder  -4.96962e-017 0 -2.36833e-017
RightArm  -25.5467 -21.1905 75.8509
RightForeArm  59.7311 12.9578 1.36551
RightHand  -0.313819 -1.85286 -10.1109
LeftUpLeg  -7.77242 6.05091 1.95713
LeftLeg  3.86211 12.7377 0.0392205
LeftFoot  6.39503 -0.0848402 1.58997
LeftToes  -23.7693 1.9075e-006 4.29692e-008
18
root  -41.7869 34.8497 11.898 -169.402 58.7388 -179.347
RightUpLeg  -7.2864 -16.5825 -0.62125
RightLeg  2.80677 -1.69608 0.0267431
RightFoot  6.65052 0.0352782 -0.0349932
RightToes  -27.1481 -0.126169 -0.232039
Spine  -2.4105 -0.0793544 -0.14928
Spine1  -4.87273 -0.0877209 0.393478
HEad  -70.7338 -6.61188 10.0492
LeftShoulder1  -1.94126e-019 -3.10601e-018 -2.51263e-017
LeftArm  -12.9587 25.0247 -80.8229
LeftForeArm  34.8434 -11.1771 -1.91924
LeftHand  -0.452345 -1.33782 7.96301
RightShoulder  -4.96962e-017 0 -2.36833e-017
RightArm  -25.3245 -21.1234 76.0988
RightForeArm  59.6221 13.2224 1.33045
RightHand  -0.336103 -1.60434 -10.1627
LeftUpLeg  -7.7265 5.929 1.97072
LeftLeg  3.73976 12.7115 0.0122367
LeftFoot  6.48796 -0.0860047 1.60807
LeftToes  -23.8285 1.9075e-006 4.29692e-008
19
root  -41.7868 34.86 11.904 -169.43 58.6275 -179.339
RightUpLeg  -7.1273 -16.6604 -0.604747
RightLeg  2.57198 -1.74459 0.0345948
RightFoot  6.78063 0.0360099 -0.0454496
RightToes  -27.2278 -0.126169 -0.232039
Spine  -2.39431 -0.0897663 -0.152333
Spine1  -4.83948 -0.110712 0.389886
HEad  -70.5904 -6.48555 9.91828
LeftShoulder1  -1.94126e-019 -3.10601e-018 -2.51263e-017
LeftArm  -12.4897 24.8004 -80.9978
LeftForeArm  34.6409 -11.5167 -1.96165
LeftHand  -0.445274 -1.39762 7.77646
RightShoulder  -4.96962e-017 0 -2.36833e-017
RightArm  -24.7736 -21.0885 76.3353
RightForeArm  59.2955 13.5099 1.29198
RightHand  -0.367337 -1.28829 -10.3019
LeftUpLeg  -7.59632 5.83492 1.99725
LeftLeg  3.49635 12.6896 -0.0412212
LeftFoot  6.63074 -0.0879 1.63754
LeftToes  -23.8533 1.9075e-006 4.29692e-008
20
root  -41.793 34.8702 11.9089 -169.444 58.6141 -179.36
RightUpLeg  -7.01196 -16.688 -0.615115
RightLeg  2.30879 -1.70811 0.0416792
RightFoot  6.89845 0.0360356 -0.0458161
RightToes  -27.2026 -0.126169 -0.232039
Spine  -2.39399 -0.0785334 -0.15483
Spine1  -4.83711 -0.0906321 0.380561
HEad  -70.439 -6.35847 9.73685
LeftShoulder1  -1.94126e-019 -3.10601e-018 -2.51263e-017
LeftArm  -12.2564 24.5078 -81.2016
LeftForeArm  34.6342 -11.9261 -2.01157
LeftHand  -0.446046 -1.52412 7.65695
RightShoulder  -4.96962e-017 0 -2.36833e-017
RightArm  -24.3827 -21.0068 76.5818
RightForeArm  59.2859 13.7359 1.25873
RightHand  -0.396892 -0.979127 -10.3921
LeftUpLeg  -7.48824 5.83092 1.9866
LeftLeg  3.22946 12.692 -0.0998334
LeftFoot  6.77479 -0.090022 1.67053
LeftToes  -23.9682 1.9075e-006 4.29692e-008
21
root  -41.7986 34.8783 11.9123 -169.432 58.6332 -179.372
RightUpLeg  -6.93781 -16.7618 -0.605878
RightLeg  2.0798 -1.62683 0.0461785
RightFoot  7.01352 0.0356723 -0.0406253
RightToes  -27.1859 -0.126169 -0.232039
Spine  -2.39523 -0.0641464 -0.156118
Spine1  -4.83794 -0.0628667 0.365522
HEad  -70.2447 -6.18345 9.57022
LeftShoulder1  -1.94126e-019 -3.10601e-018 -2.51263e-017
LeftArm  -12.1095 24.4282 -81.3155
LeftForeArm  33.9296 -13.2975 -2.21784
LeftHand  -0.445243 -1.56553 7.70264
RightShoulder  -4.96962e-017 0 -2.36833e-017
RightArm  -23.9025 -20.8903 76.8415
RightForeArm  59.3337 13.9225 1.2302
RightHand  -0.419297 -0.853203 -10.6913
LeftUpLeg  -7.40668 5.83916 1.97461
LeftLeg  3.0007 12.6964 -0.150118
LeftFoot  6.86587 -0.0913933 1.69185
LeftToes  -23.8943 1.9075e-006 4.29692e-008
